<?xml version="1.0" encoding="UTF-8" standalone="no"?>
<svg
   width="128mm"
   height="128mm"
   version="1.1"
   viewBox="0 0 483.77954 483.77953"
   id="svg7"
   sodipodi:docname="firmware.svg"
   inkscape:version="1.1.1 (3bf5ae0d25, 2021-09-20, custom)"
   inkscape:export-filename="/home/erik/DATA/ursamajor-rEFInd/icons/func_firmware.png"
   inkscape:export-xdpi="25.4"
   inkscape:export-ydpi="25.4"
   xmlns:inkscape="http://www.inkscape.org/namespaces/inkscape"
   xmlns:sodipodi="http://sodipodi.sourceforge.net/DTD/sodipodi-0.dtd"
   xmlns="http://www.w3.org/2000/svg"
   xmlns:svg="http://www.w3.org/2000/svg">
  <sodipodi:namedview
     id="namedview9"
     pagecolor="#ffffff"
     bordercolor="#666666"
     borderopacity="1.0"
     inkscape:pageshadow="2"
     inkscape:pageopacity="0.0"
     inkscape:pagecheckerboard="0"
     showgrid="false"
     units="mm"
     inkscape:zoom="0.70996094"
     inkscape:cx="-35.213205"
     inkscape:cy="19.015131"
     inkscape:window-width="1920"
     inkscape:window-height="1080"
     inkscape:window-x="1920"
     inkscape:window-y="0"
     inkscape:window-maximized="1"
     inkscape:current-layer="svg7"
     inkscape:document-units="mm" />
  <defs
     id="defs3">
    <style
       id="current-color-scheme"
       type="text/css">.ColorScheme-Text {
        color:#eff0f1;
      }</style>
  </defs>
  <path
     id="path5"
     style="fill:#ffffff;fill-opacity:1;stroke-width:3.76899"
     class="ColorScheme-Text"
     d="m 241.06641,32.296875 c -6.7015,0.154857 -13.3948,0.630973 -20.05079,1.425781 -1.36911,0.178502 -2.97586,0.369308 -4.43183,0.587707 -6.52622,0.925894 -13.0081,2.170024 -19.41191,3.732606 0,9.25651 -10e-6,18.513021 0,27.769531 -13.35868,3.821863 -26.37741,8.951323 -38.53508,15.698672 -2.00458,1.483903 -5.04836,0.819737 -6.48837,-1.144772 -5.48683,-5.549978 -10.97619,-11.097452 -16.4707,-16.639838 -8.16089,5.107488 -15.96027,10.791606 -23.32812,16.988282 -16.91608,14.246252 -31.663708,31.330586 -43.249166,50.248326 5.951345,6.07472 12.010482,12.13694 18.003285,18.20685 0.483419,0.48784 0.966046,0.97646 1.449005,1.46475 -0.970925,1.83112 -1.967044,3.6438 -2.872149,5.42352 -0.856405,1.63805 -1.61835,3.18633 -2.454023,4.87335 -4.549848,9.31864 -8.25373,19.03829 -11.174118,28.98639 -0.311959,1.02205 -0.623786,2.04414 -0.935256,3.06635 -9.190105,-10e-6 -18.380209,0 -27.570313,0 -2.145575,9.07628 -3.664041,18.29838 -4.589844,27.57812 -0.123513,1.3438 -0.258582,2.76701 -0.371093,4.18164 -0.715083,9.17133 -0.831467,18.39243 -0.240235,27.57422 0.378867,5.96193 1.007959,12.07729 1.902145,18.04997 0.339707,2.21368 0.66864,4.27409 1.075007,6.49183 0.301458,1.66041 0.620505,3.32438 0.940817,4.8957 0.446989,2.134 0.909539,4.26495 1.419922,6.38476 9.165364,10e-6 18.330729,0 27.496094,0 2.304359,7.87938 4.854831,15.69901 8.068359,23.25977 2.382061,5.61833 5.116522,11.25973 8.018407,16.69739 0.387031,0.73046 0.774133,1.46088 1.16128,2.19128 -1.433448,2.02733 -3.354078,3.62555 -5.044583,5.42653 -4.763784,4.8103 -9.527569,9.62059 -14.291354,14.43089 12.836232,20.95735 29.45713,39.5778 48.781253,54.75782 1.20645,0.93526 2.59553,2.00614 3.88874,2.97124 4.50842,3.36909 9.09272,6.4963 13.88988,9.50533 2.01276,-1.92498 4.00495,-4.02792 6.00979,-6.02134 4.4931,-4.53581 8.98579,-9.07203 13.47916,-13.60758 6.43268,3.57072 12.98977,6.93032 19.77344,9.78711 1.13969,0.47855 2.51289,1.05188 3.75243,1.54131 5.09589,2.03592 10.29062,3.84677 15.55853,5.3685 2.03606,0.78636 3.31716,3.05946 2.96387,5.20816 -0.0297,7.85583 -0.0156,15.71172 -0.017,23.56758 3.15881,0.75839 6.29697,1.43221 9.43943,2.03162 7.91831,1.51451 16.0743,2.5766 24.1809,3.12802 2.61989,0.18262 5.32582,0.30933 8.01443,0.38919 3.94307,0.1069 8.13855,0.10499 12.07825,-0.0339 4.10758,-0.13312 8.07298,-0.40049 12.1792,-0.79135 7.62967,-0.73803 15.21773,-1.89674 22.72107,-3.4638 1.334,-0.29231 2.89588,-0.63018 4.31434,-0.9645 0.46772,-0.21325 1.46247,-0.0125 1.22472,-0.78746 0,-9.11068 0,-18.22135 0,-27.33203 7.87673,-2.38239 15.70887,-4.963 23.24756,-8.28223 5.72063,-2.48145 11.24168,-5.22304 16.71881,-8.23563 0.99149,-0.74865 2.46421,-0.76711 3.36506,0.13644 3.2271,3.3566 6.55909,6.63155 9.82504,9.9587 2.77987,2.80627 5.55975,5.61254 8.33962,8.41881 9.09856,-5.68405 17.73159,-12.10506 25.83594,-19.13281 0.71726,-0.63993 1.64889,-1.45661 2.44852,-2.16445 12.05533,-10.8254 22.83654,-23.06489 32.06711,-36.38047 0.52826,-0.78676 1.22161,-1.77886 1.74923,-2.57279 1.54457,-2.30276 3.03515,-4.64123 4.48709,-7.00338 -6.48698,-6.54818 -12.97394,-13.09638 -19.46093,-19.64453 4.9723,-9.15338 9.45888,-18.5928 12.91957,-28.42764 1.6379,-4.59195 3.06798,-9.25419 4.44566,-13.92979 9.16602,0 18.33203,10e-6 27.49805,0 1.28265,-5.35294 2.33229,-10.76028 3.20117,-16.19531 0.1964,-1.307 0.42444,-2.85331 0.61523,-4.2539 0.51307,-3.82886 0.94724,-7.72659 1.24316,-11.50285 0.28692,-3.46551 0.47833,-7.11618 0.58301,-10.66708 0.0453,-1.95526 0.0862,-4.10905 0.0685,-6.14334 -0.013,-4.38291 -0.18937,-8.81278 -0.50606,-13.11564 -0.78919,-11.20489 -2.49385,-22.34408 -5.06436,-33.27812 -9.19726,-10e-6 -18.39453,0 -27.59179,0 -0.99839,-3.42343 -2.00836,-6.7943 -3.14117,-10.1289 -3.37519,-10.12684 -7.66292,-19.941 -12.74056,-29.32898 -0.50919,-0.96732 -1.01852,-1.93456 -1.52843,-2.9015 6.4862,-6.547 12.97267,-13.09373 19.45898,-19.64062 -2.43303,-3.97964 -5.01188,-7.85127 -7.65625,-11.60352 -7.82909,-11.01642 -16.73119,-21.26801 -26.53906,-30.566407 -8.70221,-8.236318 -18.26652,-15.860296 -28.34316,-22.489352 -1.35574,-0.893656 -2.70153,-1.756922 -4.04746,-2.598539 -6.48866,6.550409 -12.97966,13.098492 -19.4668,19.650391 -5.81388,-3.252571 -11.7574,-6.277903 -17.86524,-8.941406 -1.34609,-0.586339 -2.94315,-1.264852 -4.30438,-1.818456 -5.41341,-2.216306 -10.95064,-4.123416 -16.54859,-5.811344 -1.85813,-0.461837 -3.25291,-2.175749 -3.35796,-4.081138 0.0947,-4.788676 0.0224,-9.593915 0.0449,-14.389453 0,-3.429427 0,-6.858854 0,-10.288281 -3.73588,-0.914651 -7.50132,-1.704422 -11.28125,-2.414063 -0.80717,-0.137441 -1.90436,-0.334469 -2.82291,-0.494794 -4.43072,-0.754189 -8.88679,-1.354677 -13.35678,-1.821612 -0.8849,-0.08614 -2.05765,-0.194298 -3.05312,-0.288895 -6.56436,-0.566642 -13.1554,-0.811168 -19.74375,-0.730636 z m 3.16601,14.742187 c 10.91017,-0.0059 21.78203,1.17103 32.55274,2.837891 0,9.095703 0,18.191406 0,27.287109 20.98239,4.295816 41.09822,12.760999 58.85351,24.736328 5.62403,-5.671368 11.249,-11.353763 16.8711,-17.019531 1.70667,-1.401419 4.39035,-1.153711 5.92441,0.391123 14.15135,10.638026 26.87997,23.173078 37.64233,37.233978 1.03205,1.39887 2.15634,2.75195 3.08265,4.21531 0.91418,1.95705 0.004,4.35537 -1.70193,5.55902 -5.24258,5.3452 -10.52094,10.65016 -15.78926,15.96971 11.88371,18.01569 20.21656,38.35968 24.41601,59.52734 9.05469,0 18.10938,0 27.16407,0 2.29068,14.54418 3.37912,29.32824 2.38867,44.03907 -0.43903,7.21592 -1.37629,14.38892 -2.43164,21.53711 -9.00977,0 -18.01953,0 -27.0293,0 -4.24792,21.16113 -12.62229,41.4919 -24.55273,59.48046 6.39142,6.44778 12.78161,12.89677 19.17383,19.34375 -7.89755,10.98955 -16.70837,21.3507 -26.63106,30.56863 -6.09077,5.69259 -12.60682,10.90932 -19.28691,15.89036 -6.40119,-6.45429 -12.80066,-12.91028 -19.20118,-19.36524 -17.77425,11.93691 -37.90645,20.35559 -58.89453,24.59766 0,9.14258 0,18.28516 0,27.42774 -14.06353,2.25426 -28.35752,3.36326 -42.5935,2.4969 -7.53471,-0.4001 -15.02459,-1.36898 -22.48267,-2.48519 0,-9.14648 0,-18.29296 0,-27.43945 -20.98966,-4.24075 -41.11725,-12.66694 -58.89648,-24.59766 -6.39077,6.45624 -12.78031,12.9137 -19.17188,19.36914 -10.69333,-7.83812 -20.74409,-16.5842 -29.70205,-26.37027 -5.204445,-5.65408 -10.025819,-11.65846 -14.590627,-17.83123 -1.024987,-0.92884 -1.233793,-2.6953 -0.145844,-3.65771 5.798967,-6.07017 11.779411,-11.96186 17.667041,-17.94547 -11.928642,-17.99072 -20.304008,-38.32119 -24.55469,-59.48242 -9.004557,0 -18.009115,0 -27.013672,0 -2.328001,-14.70322 -3.462313,-29.65197 -2.434717,-44.526 0.428214,-7.05254 1.342339,-14.0635 2.358545,-21.05213 9.061198,0 18.122396,0 27.183594,0 4.199307,-21.16833 12.531671,-41.51271 24.41797,-59.52734 -6.39654,-6.45727 -12.776315,-12.90979 -19.203126,-19.32617 9.303006,-12.95133 19.980346,-24.95477 32.107216,-35.329589 4.50938,-3.877306 9.21624,-7.516194 13.98849,-11.062994 6.35433,6.481283 12.74379,12.927936 19.13476,19.373043 17.75156,-11.981948 37.86984,-20.441267 58.85156,-24.738278 0,-9.094401 10e-6,-18.188802 0,-27.283203 10.76444,-1.67791 21.62329,-2.844042 32.5293,-2.841797 z" />
</svg>
